<?xml version="1.0" encoding="utf-8"?>


<svg version="1.1" id="Layer_1" xmlns="http://www.w3.org/2000/svg" xmlns:xlink="http://www.w3.org/1999/xlink" x="0px" y="0px" width="144.271px" height="145px" viewBox="0 0 144.271 145" enable-background="new 0 0 144.271 145" xml:space="preserve">
<g>
&#x9;<circle fill="#133347" cx="72.064" cy="73.046" r="59.606"></circle>
&#x9;<path fill="#FFFFFF" d="M68.9,96.236c-1.15,1.295-2.285,2.594-3.396,3.906c-1.074,1.277-2.166,2.504-3.273,3.678&#xA;&#x9;&#x9;c-1.07,1.135-2.254,2.186-3.543,3.164c-0.67,0.443-1.355,0.816-2.061,1.117c-0.537,0.203-1.158,0.303-1.863,0.303&#xA;&#x9;&#x9;s-1.26-0.268-1.662-0.805c-0.471-0.605-0.623-1.344-0.453-2.217c0.166-0.873,0.484-1.764,0.957-2.67&#xA;&#x9;&#x9;c0.469-0.906,0.99-1.779,1.561-2.619s1.023-1.527,1.361-2.066c1.141-1.812,2.232-3.627,3.273-5.439&#xA;&#x9;&#x9;c1.041-1.814,2.1-3.627,3.174-5.441c0.537-0.738,1.023-1.512,1.461-2.316c0.436-0.807,0.889-1.613,1.359-2.42&#xA;&#x9;&#x9;c2.553-4.297,5.223-8.512,8.01-12.643s5.457-8.346,8.01-12.645c3.828-6.447,7.758-12.896,11.787-19.344&#xA;&#x9;&#x9;c0.471-0.738,0.771-1.545,0.908-2.418c0.133-0.871,0.234-1.746,0.301-2.619c0-0.738-0.117-1.311-0.352-1.713&#xA;&#x9;&#x9;c-0.236-0.402-0.723-0.67-1.461-0.807c-0.605-0.133-1.227-0.166-1.863-0.1c-0.641,0.066-1.227,0.168-1.764,0.301&#xA;&#x9;&#x9;c-0.74,0.137-1.428,0.236-2.066,0.303c-0.639,0.068-1.326,0.102-2.064,0.102c-0.941-0.066-1.748,0.035-2.418,0.301&#xA;&#x9;&#x9;c-0.672,0.27-1.176,0.908-1.512,1.916c-0.201,0.873-0.438,1.729-0.705,2.568c-0.27,0.84-0.604,1.662-1.008,2.469&#xA;&#x9;&#x9;c-1.41,2.955-3.072,5.811-4.986,8.562c-1.914,2.756-3.713,5.541-5.391,8.363c-1.748,2.955-3.477,5.893-5.189,8.814&#xA;&#x9;&#x9;c-1.711,2.922-3.475,5.861-5.289,8.816c-1.678,2.754-3.408,5.457-5.188,8.109c-1.779,2.654-3.477,5.391-5.088,8.213&#xA;&#x9;&#x9;c-0.873,1.477-1.83,3.139-2.871,4.986c-1.042,1.848-1.949,3.762-2.721,5.742c-0.772,1.982-1.31,3.98-1.611,5.994&#xA;&#x9;&#x9;c-0.303,2.016-0.151,3.896,0.453,5.643c0.469,1.209,1.259,2.217,2.367,3.023c1.108,0.805,2.301,1.275,3.576,1.41&#xA;&#x9;&#x9;c0.332,0.059,4.35,0.854,7.365-0.807c1.748-1.008,3.377-2.217,4.887-3.627c1.512-1.41,2.973-2.904,4.383-4.482&#xA;&#x9;&#x9;c1.412-1.578,2.754-3.207,4.031-4.887c1.275-1.678,2.551-3.291,3.828-4.836c1.41-1.814,2.836-3.678,4.281-5.592&#xA;&#x9;&#x9;c1.443-1.914,2.838-3.744,4.182-5.49c0.738-0.941,1.426-1.898,2.064-2.871c0.639-0.975,1.326-1.932,2.066-2.873&#xA;&#x9;&#x9;c0.402-0.537,0.834-0.998,1.209-1.461c0.432-0.531,0.717-0.945,1.119-1.494c0.24-0.422,0.457-0.705,0.795-1.176&#xA;&#x9;&#x9;c0.336-0.469,0.67-0.805,1.008-1.006c-0.338,3.021-0.926,6.029-1.764,9.016c-0.84,2.99-1.629,5.93-2.367,8.816&#xA;&#x9;&#x9;c-0.539,2.15-1.16,4.299-1.865,6.447c-0.705,2.15-1.627,4.199-2.77,6.146c-0.338,0.539-0.773,1.209-1.309,2.016&#xA;&#x9;&#x9;c-0.539,0.805-1.145,1.561-1.814,2.266c-0.672,0.705-1.396,1.26-2.166,1.662c-0.773,0.404-1.529,0.471-2.268,0.203&#xA;&#x9;&#x9;c-0.74-0.27-1.242-0.941-1.512-2.016c-0.268-1.074-0.539-2.115-0.805-3.123c-0.27-1.008-0.639-1.779-1.109-2.318&#xA;&#x9;&#x9;c-0.471-0.537-1.277-0.402-2.418,0.404c-1.006,0.738-1.779,1.729-2.316,2.971c-0.539,1.244-0.639,2.469-0.303,3.678&#xA;&#x9;&#x9;c0.201,0.74,0.52,1.359,0.957,1.863c0.436,0.504,0.939,0.924,1.512,1.26c0.57,0.338,5.238,2.424,11.334,0.309&#xA;&#x9;&#x9;c2.336-0.811,4.5-1.723,6.449-3.201c1.947-1.477,3.691-3.139,5.238-5.152c1.543-2.016,2.785-4.053,3.727-6.203&#xA;&#x9;&#x9;c1.209-2.754,2.115-5.52,2.721-8.342c0.605-2.82,1.174-5.695,1.713-8.652c0.336-1.814,0.654-3.623,0.957-5.436&#xA;&#x9;&#x9;c0.303-1.814,0.688-3.625,1.158-5.438c0.201-0.738,0.453-1.443,0.756-2.115c0.303-0.67,0.621-1.375,0.957-2.115&#xA;&#x9;&#x9;c0-0.064,0.102-0.316,0.303-0.754c0.201-0.436,0.385-0.891,0.555-1.361c0.166-0.469,0.316-0.906,0.453-1.309&#xA;&#x9;&#x9;c0.133-0.404,0.166-0.605,0.1-0.605c-0.738,0-1.41,0.086-2.014,0.252c-0.605,0.17-1.277,0.287-2.016,0.354&#xA;&#x9;&#x9;c-0.873,0.066-1.73,0.084-2.568,0.051c-0.842-0.033-1.697,0.084-2.568,0.352c-0.875,0.27-1.562,0.656-2.066,1.16&#xA;&#x9;&#x9;c-0.504,0.502-1.025,1.125-1.562,1.863c-1.275,1.68-2.469,3.375-3.576,5.088c-1.109,1.713-2.266,3.408-3.475,5.088&#xA;&#x9;&#x9;c-1.412,1.947-2.822,3.879-4.232,5.793c-0.082,0.109-0.168,0.221-0.252,0.33"></path>
</g>
</svg>